<?xml version="1.0" standalone="no"?><!DOCTYPE svg PUBLIC "-//W3C//DTD SVG 1.1//EN" "http://www.w3.org/Graphics/SVG/1.1/DTD/svg11.dtd"><svg t="1544261779271" class="icon" style="" viewBox="0 0 1024 1024" version="1.1" xmlns="http://www.w3.org/2000/svg" p-id="8472" xmlns:xlink="http://www.w3.org/1999/xlink" width="200" height="200"><defs><style type="text/css"></style></defs><path d="M512 57.25662c-251.148744 0-454.74338 203.594636-454.74338 454.74338S260.851256 966.74338 512 966.74338s454.74338-203.594636 454.74338-454.74338S763.148744 57.25662 512 57.25662zM437.185932 700.528193c0 16.724275-13.683498 30.407773-30.407773 30.407773l-12.163109 0c-16.724275 0-30.407773-13.683498-30.407773-30.407773l0-377.056385c0-16.724275 13.683498-30.407773 30.407773-30.407773l12.163109 0c16.724275 0 30.407773 13.683498 30.407773 30.407773L437.185932 700.528193zM659.792724 700.528193c0 16.724275-13.683498 30.407773-30.407773 30.407773l-12.163109 0c-16.724275 0-30.407773-13.683498-30.407773-30.407773l0-377.056385c0-16.724275 13.683498-30.407773 30.407773-30.407773l12.163109 0c16.724275 0 30.407773 13.683498 30.407773 30.407773L659.792724 700.528193z" p-id="8473" fill="#3eaf7c"></path></svg>