<svg data-v-1084b650="" xmlns="http://www.w3.org/2000/svg" viewBox="0 0 300 300"><!----> <!----> <rect data-v-1084b650="" fill="#ffffff" x="0" y="0" width="300px" height="300px" class="logo-background-square"></rect> <!----> <g data-v-1084b650="" id="2f6a81e0-59e7-4299-e519-da843f00d90d" fill="#000000" transform="matrix(3.999999999999999,0,0,3.999999999999999,145.17439928650856,108.71999287605286)"><path d="M8.19 13.84L7.43 13.99L5.41 8.70L3.68 13.84L2.93 13.99L0.68 7.55L-0.21 7.10L-0.21 6.82L3.14 6.82L3.14 7.10L2.00 7.55L3.50 12.15L5.29 6.82L6.04 6.82L7.95 12.02L9.18 7.55L8.04 7.10L8.04 6.82L10.85 6.82L10.85 7.10L9.93 7.57L8.19 13.84ZM16.58 12.87L17.85 13.22L17.85 13.47L16.37 13.93L16.37 13.93Q15.93 14.03 15.63 13.83L15.63 13.83L15.63 13.83Q15.33 13.64 15.33 13.17L15.33 13.17L15.33 13.17Q14.44 13.99 13.24 13.99L13.24 13.99L13.24 13.99Q12.25 13.99 11.76 13.48L11.76 13.48L11.76 13.48Q11.27 12.97 11.27 12.20L11.27 12.20L11.27 12.20Q11.27 11.61 11.53 11.17L11.53 11.17L11.53 11.17Q11.79 10.72 12.19 10.45L12.19 10.45L12.19 10.45Q12.59 10.19 13.15 10.01L13.15 10.01L13.15 10.01Q13.71 9.83 14.23 9.76L14.23 9.76L14.23 9.76Q14.75 9.69 15.33 9.68L15.33 9.68L15.33 9.02L15.33 9.02Q15.33 8.07 15.03 7.69L15.03 7.69L15.03 7.69Q14.72 7.31 14.03 7.31L14.03 7.31L14.03 7.31Q13.50 7.31 12.79 7.48L12.79 7.48L12.07 9.06L11.73 9.06L11.73 7.12L11.73 7.12Q12.35 6.90 13.03 6.77L13.03 6.77L13.03 6.77Q13.71 6.65 14.23 6.65L14.23 6.65L14.23 6.65Q15.36 6.65 15.97 7.11L15.97 7.11L15.97 7.11Q16.58 7.56 16.58 8.60L16.58 8.60L16.58 12.87ZM13.82 13.19L13.82 13.19L13.82 13.19Q14.21 13.19 14.62 13.01L14.62 13.01L14.62 13.01Q15.03 12.82 15.33 12.49L15.33 12.49L15.33 10.24L15.33 10.24Q13.96 10.30 13.24 10.80L13.24 10.80L13.24 10.80Q12.52 11.29 12.52 12.06L12.52 12.06L12.52 12.06Q12.52 12.65 12.90 12.92L12.90 12.92L12.90 12.92Q13.28 13.19 13.82 13.19ZM22.78 6.82L25.68 6.82L25.68 7.10L24.71 7.59L24.71 7.55L22.26 13.84L21.51 13.99L18.81 7.59L17.84 7.10L17.84 6.82L21.19 6.82L21.19 7.10L20.13 7.52L22.10 12.24L23.80 7.51L22.78 7.10L22.78 6.82ZM32.14 10.17L31.94 10.36L27.51 10.36L27.51 10.36Q27.52 11.13 27.73 11.70L27.73 11.70L27.73 11.70Q27.95 12.26 28.31 12.58L28.31 12.58L28.31 12.58Q28.67 12.91 29.10 13.06L29.10 13.06L29.10 13.06Q29.54 13.21 30.05 13.21L30.05 13.21L30.05 13.21Q30.76 13.21 31.58 12.73L31.58 12.73L31.79 13.14L31.79 13.14Q31.21 13.64 30.64 13.82L30.64 13.82L30.64 13.82Q30.06 13.99 29.33 13.99L29.33 13.99L29.33 13.99Q28.70 13.99 28.11 13.72L28.11 13.72L28.11 13.72Q27.52 13.45 27.08 12.98L27.08 12.98L27.08 12.98Q26.63 12.50 26.37 11.81L26.37 11.81L26.37 11.81Q26.10 11.12 26.10 10.32L26.10 10.32L26.10 10.32Q26.10 9.56 26.29 8.94L26.29 8.94L26.29 8.94Q26.49 8.31 26.81 7.90L26.81 7.90L26.81 7.90Q27.13 7.48 27.56 7.19L27.56 7.19L27.56 7.19Q27.99 6.90 28.43 6.78L28.43 6.78L28.43 6.78Q28.88 6.65 29.35 6.65L29.35 6.65L29.35 6.65Q29.93 6.65 30.42 6.87L30.42 6.87L30.42 6.87Q30.92 7.08 31.31 7.50L31.31 7.50L31.31 7.50Q31.69 7.92 31.91 8.61L31.91 8.61L31.91 8.61Q32.14 9.29 32.14 10.17L32.14 10.17ZM29.37 7.31L29.37 7.31L29.37 7.31Q28.59 7.31 28.12 7.94L28.12 7.94L28.12 7.94Q27.65 8.56 27.54 9.64L27.54 9.64L30.80 9.64L30.80 9.64Q30.80 8.54 30.43 7.93L30.43 7.93L30.43 7.93Q30.06 7.31 29.37 7.31Z"></path></g> <linearGradient data-v-1084b650="" gradientTransform="rotate(25)" id="687885bf-c328-51a8-3568-0041c12bb024" x1="0%" y1="0%" x2="100%" y2="0%"><stop data-v-1084b650="" offset="0%" style="stop-color: rgb(66, 30, 86); stop-opacity: 1;"></stop> <stop data-v-1084b650="" offset="100%" style="stop-color: rgb(188, 96, 131); stop-opacity: 1;"></stop></linearGradient> <g data-v-1084b650="" id="d4f6aa04-c495-da3e-0659-075f47d512a2" fill="url(#687885bf-c328-51a8-3568-0041c12bb024)" stroke="none" transform="matrix(0.34098788155495474,0,0,0.34098788155495474,34.8881788135627,98.85096966762512)"><svg xmlns="http://www.w3.org/2000/svg" viewBox="0 0 100 100"><path d="M9 30.196c1.027-.955 3.845 2.216 6.087 2.216 2.243 0 7.54.203 11.209-3.465 3.262-.548 7.747 3.057 13.894 3.057 4.486 0 22.792-6.521 30.944-1.834 8.154 4.688 13.046 28.74 18.142 28.74 5.095 0 3.668-1.43 5.095 0 2.04 2.035-1.224 3.869-4.687 3.869-10.602 0-13.045-22.012-15.187-24.15C72.355 36.488 78 42.196 74 49.196c-.57 1 .396 2.785.396 5.025 0 2.243.604 6.977.604 9.977 0 2.838 1.527 4.473 0 6-1.525 1.527-10 2-10 0 0-2.307 4-2.248 4-5v-9c0-1.021-1-5-1-5s-1.825 1.217-3 3c-2.452 3.719-5 13.244-5 16 0 1-8 2-10 0 0-3 1.922-2.08 2.893-3.002 2.107-2 2.107-3 2.959-5.23.563-1.479 3.463-9.578 3.463-12.024 0-2.447-8.967-1.836-12.025-.815-3.056 1.02-7.235 3.158-8.56 4.483-1.323 1.326-5.297 1.326-5.297 1.326s4.482 10.963 3.056 12.391c-1.428 1.428 3.466 4.016-2.649 4.016-4.076 0-6.963-.14-6.931-.917.092-2.228 1.987-2.188 3.719-3.924 1.733-1.731-4.841-9.731-4.841-10.854 0-1.119-1.817 2.582-2.787 3.551-.967.969-5.109 3.736-5.875 7.254-.763 3.516 1.122 4.635-1.886 4.635-3.004-.003-8.239.66-8.239-1.786s2.481-1.729 4.012-3.259c1.529-1.529 4.075-4.689 4.075-5.912 0-1.221 3.749-5.495 4.913-8.936 1-1-3.079-5.128-4.301-5.128-1.225 0-2.549-.203-2.549 1.325 0 1.529-2.752 3.566-3.77 2.548-1.02-1.019-2.651-1.63-2.651-2.65 0-1.019-1.729-.814-1.729-2.752 0-1.936 1.478-2.037 1.478-3.412 0-1.376-1.147-2.676 0-3.822l2.979-2.981S7.973 31.15 9 30.196z"></path></svg></g></svg>