<?xml version="1.0" standalone="no"?><!DOCTYPE svg PUBLIC "-//W3C//DTD SVG 1.1//EN" "http://www.w3.org/Graphics/SVG/1.1/DTD/svg11.dtd"><svg t="1544265682631" class="icon" style="" viewBox="0 0 1024 1024" version="1.1" xmlns="http://www.w3.org/2000/svg" p-id="13981" xmlns:xlink="http://www.w3.org/1999/xlink" width="200" height="200"><defs><style type="text/css"></style></defs><path d="M728.32 934.4l-45.909333-17.92 170.837333-436.053333a37.632 37.632 0 0 0-23.381333-49.493334l-298.794667-97.450666a37.717333 37.717333 0 0 0-46.933333 22.485333l-148.906667 393.216-70.528-26.538667 208.938667-552.021333a37.802667 37.802667 0 0 1 46.464-22.698667L967.082667 285.866667c20.906667 6.485333 32 29.269333 24.021333 49.706666l-228.778667 584.064a26.368 26.368 0 0 1-34.048 14.848z" p-id="13982" fill="#3eaf7c"></path><path d="M50.901333 702.165333a146.048 146.048 0 0 0 145.792 146.261334 146.048 146.048 0 0 0 145.792-146.261334 146.048 146.048 0 0 0-145.792-146.304 146.048 146.048 0 0 0-145.792 146.304zM479.061333 877.482667a146.048 146.048 0 0 0 145.792 146.304 146.048 146.048 0 0 0 145.792-146.304 146.048 146.048 0 0 0-145.792-146.261334 146.048 146.048 0 0 0-145.792 146.261334zM209.066667 380.330667L92.288 85.418667a35.242667 35.242667 0 0 1 22.186667-46.72L235.562667 1.493333a33.493333 33.493333 0 0 1 40.405333 18.346667l14.805333 32.554667a33.962667 33.962667 0 0 1-20.053333 46.378666l-82.773333 27.477334a14.293333 14.293333 0 0 0-8.704 18.773333l78.976 203.178667a11.946667 11.946667 0 0 1-6.613334 15.36l-42.538666 16.768z" p-id="13983" fill="#3eaf7c"></path><path d="M66.005333 398.464c0 56.533333 45.696 102.4 102.058667 102.4a102.229333 102.229333 0 0 0 102.058667-102.4c0-56.576-45.653333-102.4-102.058667-102.4a102.229333 102.229333 0 0 0-102.058667 102.4z" p-id="13984" fill="#3eaf7c"></path></svg>