<?xml version="1.0" standalone="no"?><!DOCTYPE svg PUBLIC "-//W3C//DTD SVG 1.1//EN" "http://www.w3.org/Graphics/SVG/1.1/DTD/svg11.dtd"><svg t="1544265271227" class="icon" style="" viewBox="0 0 1024 1024" version="1.1" xmlns="http://www.w3.org/2000/svg" p-id="9836" xmlns:xlink="http://www.w3.org/1999/xlink" width="200" height="200"><defs><style type="text/css"></style></defs><path d="M512.055704 0C229.277565 0 0 229.22805 0 511.993811s229.277565 512.006189 512.055704 512.006189 511.993811-229.240429 511.993811-512.006189S794.821464 0 512.055704 0z m0 921.591335c-225.861054 0.049515-409.597524-183.748849-409.597524-409.597524S286.19465 102.396286 512.055704 102.396286s409.597524 183.748849 409.597524 409.597525-183.748849 409.647039-409.597524 409.647039z" p-id="9837" fill="#3eaf7c"></path><path d="M388.046275 321.275776a51.346687 51.346687 0 0 0-51.198143 51.198143v281.651681a51.198143 51.198143 0 0 0 102.396286 0V372.523434a51.346687 51.346687 0 0 0-51.198143-51.247658zM636.052754 321.275776a51.346687 51.346687 0 0 0-51.198143 51.198143v281.651681a51.198143 51.198143 0 0 0 102.396287 0V372.523434a51.346687 51.346687 0 0 0-51.198144-51.247658z" p-id="9838" fill="#3eaf7c"></path></svg>